<svg xmlns="http://www.w3.org/2000/svg" viewBox="0 0 1595.14 888.25"><defs><style>.cls-1{fill:#adc3cd;}.cls-2{fill:#c09f59;}.cls-3{fill:#f7f3e8;}.cls-10,.cls-4,.cls-6{fill:#0a1633;}.cls-5{fill:#b76d4a;}.cls-6{font-size:30px;}.cls-10,.cls-6{font-family:GalanoGrotesque-Medium;font-weight:500;}.cls-7{letter-spacing:-0.01em;}.cls-8{letter-spacing:-0.01em;}.cls-9{letter-spacing:0em;}.cls-10{font-size:186.91px;}.cls-11{fill:#88a1ae;}.cls-12{fill:#81301a;}.cls-13{letter-spacing:0.02em;}.cls-14{letter-spacing:-0.02em;}.cls-15{fill:#d8d8d8;}.cls-16{letter-spacing:0em;}.cls-17{letter-spacing:-0.01em;}.cls-18{letter-spacing:0em;}.cls-19{letter-spacing:-0.01em;}.cls-20{letter-spacing:0em;}.cls-21{letter-spacing:-0.01em;}.cls-22{letter-spacing:-0.01em;}.cls-23{fill:#859087;}.cls-24{fill:#c5c3bd;}.cls-25{fill:#757656;}.cls-26{fill:#4e5129;}</style></defs><g id="Layer_2" data-name="Layer 2"><g id="Layer_1-2" data-name="Layer 1"><path class="cls-1" d="M154.39,540.1v18.6h10.27a3.87,3.87,0,0,1,0,6.2c-3.59,3.3-10.78,3.72-10.27,13.64S157,688.89,157,688.89s56.45,20.66,113.93-2.07V567l-9.24-7,9.24.82V542.58Z"/><path class="cls-2" d="M244.72,682.44A10.35,10.35,0,0,0,255.77,686c7.31-1.85,9.46-6.42,10.1-8.94s.17-8.51-3.77-11.2l-5.49,4.92s2.4,2.3,1.79,4.42a5,5,0,0,1-3.63,3.13c-.81.2-1.54.49-4.56-.82Z"/><path class="cls-2" d="M219.33,671.48a10.33,10.33,0,0,0,2.55,11.32c5.31,5.36,10.34,4.89,12.84,4.15s7.41-4.18,7.72-8.94l-7-2.23s-.76,3.24-2.9,3.79A5,5,0,0,1,228,678c-.58-.59-1.21-1.07-1.61-4.34Z"/><path class="cls-2" d="M249.44,672.63a10.33,10.33,0,0,0-2.68-11.29c-5.37-5.3-10.4-4.77-12.89-4s-7.36,4.27-7.62,9l7.06,2.15s.72-3.25,2.85-3.82a5,5,0,0,1,4.56,1.48c.59.58,1.22,1.06,1.66,4.31Z"/><path class="cls-2" d="M204.86,684a10.33,10.33,0,0,0,11,3.57c7.31-1.84,9.46-6.41,10.1-8.94s.17-8.51-3.77-11.2l-5.49,4.92s2.4,2.3,1.79,4.42a5,5,0,0,1-3.64,3.13c-.8.2-1.53.5-4.55-.81Z"/><path class="cls-2" d="M179.46,673A10.36,10.36,0,0,0,182,684.35c5.31,5.35,10.34,4.88,12.84,4.15s7.41-4.19,7.72-9l-7-2.23s-.76,3.25-2.9,3.8a5,5,0,0,1-4.54-1.54c-.58-.59-1.21-1.07-1.61-4.33Z"/><path class="cls-2" d="M222.44,658.74a10.36,10.36,0,0,0-11.55-1.23c-6.78,3.3-7.95,8.21-8.07,10.82s1.58,8.36,6,10.19l4.38-5.94s-2.83-1.76-2.66-4a5,5,0,0,1,2.92-3.81c.74-.36,1.4-.8,4.62-.13Z"/><path class="cls-2" d="M183.28,671.86a10.34,10.34,0,0,0,10.95,3.84c7.36-1.66,9.63-6.18,10.33-8.69s.38-8.5-3.49-11.29l-5.62,4.78s2.35,2.37,1.68,4.47a5,5,0,0,1-3.71,3c-.8.18-1.55.45-4.53-.93Z"/><path class="cls-2" d="M266.11,638.82A10.33,10.33,0,0,0,255,642.19c-5,5.68-4.13,10.66-3.21,13.1s4.7,7.09,9.48,7.06l1.71-7.18s-3.29-.52-4-2.61a5,5,0,0,1,1.2-4.64c.54-.62,1-1.28,4.21-1.92Z"/><path class="cls-2" d="M252,635.25a10.34,10.34,0,0,0-10.74,4.41c-4.4,6.13-3.09,11-2,13.35s5.36,6.61,10.11,6.12l1-7.3s-3.32-.21-4.22-2.23a5,5,0,0,1,.75-4.73c.48-.67.86-1.37,4-2.32Z"/><path class="cls-2" d="M256.81,636.91a10.37,10.37,0,0,0,8.6-7.81c2-7.26-.85-11.4-2.73-13.22s-7.29-4.38-11.58-2.3l1.53,7.21s3.19-.94,4.72.65a5,5,0,0,1,.91,4.71c-.23.8-.34,1.58-3,3.54Z"/><path class="cls-3" d="M190.92,567.74a37.25,37.25,0,0,1,17.91,3.09,34.59,34.59,0,0,1-35,3.36A37.59,37.59,0,0,1,190.92,567.74Z"/><path class="cls-4" d="M189.1,568a8.35,8.35,0,0,0-2.07,6.19,1.75,1.75,0,0,0,.81,1.42,1.67,1.67,0,0,0,1.66,0,4.25,4.25,0,0,0,1.54-1.74c.13-.23.3-.45.42-.69-.17.34-.2.23-.07.1s.23-.19,0,0,0,0,0,0c.22-.15-.39.13-.11,0l-2-2a48.32,48.32,0,0,0-.71,4.78,1.64,1.64,0,0,0,1.2,1.59,1.74,1.74,0,0,0,1.86-.76,9,9,0,0,0,1.53-3.72c.26-1.62.4-4-1.61-4.55a2.69,2.69,0,0,0-2.63.84,5.27,5.27,0,0,0-1,2.25,14,14,0,0,0-.5,2.22,3,3,0,0,0,.1,1.07,2.53,2.53,0,0,0,1,1.31,1.66,1.66,0,0,0,1.27.17,1.65,1.65,0,0,0,1.15-2,1.94,1.94,0,0,0-.76-1c.38.45.51.57.39.37s0,0,.08.2,0,.26,0,.07-.09.38,0,0l.06-.23c.12-.5.26-1,.39-1.49.06-.23.14-.46.19-.7s-.11.19,0,0l.07-.15c.08-.12.08-.13,0,0s-.08.11,0,0l-.18.14c.27-.18-.31.1,0,0a1,1,0,0,1-1.16-.61c.11.29,0-.37,0,0a2.44,2.44,0,0,0,0,.27c0,.22,0,.43,0,.64a1.34,1.34,0,0,1,0,.35c0-.23,0-.28,0-.15l0,.17a5.73,5.73,0,0,1-.16.69c-.05.2-.12.41-.19.61a1.25,1.25,0,0,1-.1.27c.09-.21.1-.23,0-.07l0,.11a9.3,9.3,0,0,1-.72,1.22l3.06.82c0-.35.07-.7.12-1l0-.27c0,.22,0,.23,0,0s0-.35.07-.53c.11-.7.23-1.4.37-2.1a1.68,1.68,0,0,0-.42-1.6,1.65,1.65,0,0,0-1.6-.42,3.43,3.43,0,0,0-2,1.7c-.15.26-.29.53-.45.78a1.63,1.63,0,0,0-.11.17c-.1.16.27-.3.08-.12a.85.85,0,0,0-.16.17c.06-.11.34-.24.07-.09l2.47,1.42a7.57,7.57,0,0,1,0-1.26s0-.11,0-.16c0,.23,0,.29,0,.16s0-.18,0-.27.1-.43.16-.64l.11-.32s.12-.36,0-.11,0-.06.05-.11l.15-.3c.11-.19.22-.39.35-.57a1,1,0,0,1,.19-.27l-.12.15.15-.17A1.64,1.64,0,0,0,189.1,568Z"/><path class="cls-3" d="M239.14,567.88A37.39,37.39,0,0,1,255.41,576,34.62,34.62,0,0,1,221,569.17,37.71,37.71,0,0,1,239.14,567.88Z"/><path class="cls-4" d="M233.9,568.82a8.35,8.35,0,0,0,1.14,6.44,1.66,1.66,0,0,0,2.83,0,4.28,4.28,0,0,0,.52-2.28c0-.14,0-.28,0-.41s0-.14,0-.2c0-.32,0,.15,0,.16s.19-.58,0-.23,0,0,0,0-.33.36-.06.11l-2.75-.72c.43,1.4.93,2.78,1.49,4.14a1.75,1.75,0,0,0,.75,1,1.66,1.66,0,0,0,1,.19,1.49,1.49,0,0,0,.94-.45,2,2,0,0,0,.48-1.16,9.34,9.34,0,0,0-.18-3.16,8.23,8.23,0,0,0-1.19-2.85,2.62,2.62,0,0,0-2.1-1.24,2.53,2.53,0,0,0-2.1,1.24c-.75,1.19-.3,2.59,0,3.85a8.42,8.42,0,0,0,.54,1.77,2.43,2.43,0,0,0,1.66,1.35,1.84,1.84,0,0,0,1.26-.17,1.64,1.64,0,0,0,.75-1,1.66,1.66,0,0,0-.16-1.27,1.6,1.6,0,0,0-1-.75c-.34,0,.1.07.22.16s.15.12.06,0c.17.23.21.28.12.14s-.07-.26,0,.11a2.34,2.34,0,0,0-.09-.24c-.13-.45-.22-.92-.33-1.38-.06-.26-.13-.52-.19-.79l0-.17c0-.12,0-.07,0,.16a2,2,0,0,1,0-.34c0,.25,0,.29,0,.11s0-.12-.06.13c.12-.26-.25.26,0,0a.69.69,0,0,1-.31.2c-.15,0-.16.06,0,0a1,1,0,0,1-.84-.11c.1.07.1.06,0,0s-.13-.1,0,0l-.09-.12.15.25c.11.19.21.4.31.6.17.38-.1-.27,0,0l.11.3c.07.21.13.43.19.65s0,.24.07.36,0,.25.06.31c0-.26,0-.3,0-.12v.1l0,.37a7.47,7.47,0,0,1-.05,1.42l3.22-.43c-.56-1.36-1.05-2.74-1.48-4.15a1.66,1.66,0,0,0-2.75-.72,3.47,3.47,0,0,0-.93,2.48c0,.3,0,.6,0,.9,0,.07,0,.33,0,0s0-.06,0,0,0,.21-.07.23.2-.4,0-.12h2.83c-.12-.18-.23-.36-.34-.55l-.15-.31c-.06-.12-.12-.41,0,0a11.85,11.85,0,0,1-.35-1.2c0-.1,0-.2-.05-.29s0-.07,0,.18a1.5,1.5,0,0,0,0-.2c0-.2,0-.4,0-.6s0-.41,0-.61-.06.35,0,0c0-.14,0-.27.07-.4a1.64,1.64,0,1,0-3.16-.87Z"/><path class="cls-2" d="M203.43,599.16a10.33,10.33,0,0,0,6.51,9.61c6.91,3,11.41.76,13.47-.84s5.37-6.6,3.92-11.14l-7.36.49s.48,3.3-1.31,4.59a5,5,0,0,1-4.79.24c-.75-.34-1.51-.56-3.09-3.45Z"/><path class="cls-5" d="M218.33,570.25v-.68h-6.57v1a3.29,3.29,0,0,0,6.57,0l0-1.23a3.29,3.29,0,0,0-6.45-.87,10.69,10.69,0,0,0-.35,3.56,3.33,3.33,0,0,0,4.94,2.83,4.14,4.14,0,0,0,.82-6.58,3.41,3.41,0,0,0-3.19-.85,3.25,3.25,0,0,0-2.29,2.3,26.59,26.59,0,0,0-.59,5.49,3.29,3.29,0,0,0,6.45.87,12.26,12.26,0,0,0,.38-4,3.28,3.28,0,0,0-6.56,0v4.79a3.29,3.29,0,0,0,6.45.87,9.65,9.65,0,0,0,.36-3.74c-.21-1.7-1.37-3.37-3.29-3.28a3.35,3.35,0,0,0-3.28,3.28,48.77,48.77,0,0,0,.64,9.19,3.28,3.28,0,0,0,6.33,0,25.49,25.49,0,0,0,0-8.13,3.27,3.27,0,0,0-3.61-2.36,3.32,3.32,0,0,0-2.84,3.23q-.27,3.62-.75,7.21h6.56a24.83,24.83,0,0,0-.36-5.58,3.24,3.24,0,0,0-3.6-2.35,3.3,3.3,0,0,0-2.84,3.22c0,.4-.08.81-.11,1.21s0,.4,0,0l-.09.59c-.13.8-.3,1.59-.48,2.38l6.33,1.74a27.46,27.46,0,0,0,.3-6.27,3.33,3.33,0,0,0-2.85-3.23,3.25,3.25,0,0,0-3.6,2.35,47,47,0,0,0-.78,6.89,3.28,3.28,0,0,0,6.44.88,40.85,40.85,0,0,0,.91-9.86,3.3,3.3,0,0,0-2.85-3.22,3.26,3.26,0,0,0-3.6,2.35,66.72,66.72,0,0,0-1.63,9.54,13.3,13.3,0,0,0,0,4.58,3.92,3.92,0,0,0,5.83,2.5c2.75-1.64,3.55-5,3.74-8a70.19,70.19,0,0,0-.1-8.94,3.29,3.29,0,0,0-6.45-.87L212,574a3.3,3.3,0,0,0,2.29,4,3.35,3.35,0,0,0,4-2.29l.25-.86-6.44-.88q.25,4,.14,7.91c0,.51,0,1-.08,1.51,0,.12,0,.24,0,.36s0,.16,0-.27a2.29,2.29,0,0,1-.14.7c-.06.23-.14.45-.2.68-.17.67.31-.47,0,.06a3.18,3.18,0,0,1-.23.4c-.16.24-.17.25,0,0s.15-.21,0,0c-.58.5-.13.34,1.33-.46l1.65.45c.78.37.86.91,1.07,1.54s0,0,.05-.26c0-.52.06-1.05.1-1.57s.09-1,.14-1.57c0-.31.07-.62.1-.93,0-.08.12-.9.06-.5s.08-.52.08-.5l.12-.78c.09-.51.18-1,.28-1.54.21-1.08.45-2.16.72-3.23l-6.45-.87a37.28,37.28,0,0,1-.1,4.36q0,.46-.09.93c0,.21,0,.42-.07.62.05-.36,0-.34,0,.06-.12.71-.25,1.43-.4,2.14l6.45.87c0-1,.1-1.91.2-2.86,0-.21.05-.42.07-.63,0,.35,0,.16,0-.08.08-.52.17-1,.27-1.57l-6.45-.87a23.86,23.86,0,0,1,.08,2.54c0,.43,0,.85-.07,1.28l-.06.63c.05-.34,0-.32,0,.08-.26,1.69.42,3.61,2.29,4a3.33,3.33,0,0,0,4-2.29,37.35,37.35,0,0,0,.91-6l-6.45.87c.06.4.07.42,0,.07,0,.2,0,.41.07.62s.05.63.06.94a20.37,20.37,0,0,1,0,2.21,3.31,3.31,0,0,0,3.28,3.28,3.38,3.38,0,0,0,3.28-3.28q.48-3.6.75-7.21l-6.44.87c.1.63,0-.2,0,.19,0,.2,0,.4.06.61,0,.5.06,1,.06,1.52s0,.92-.05,1.38c0,.2,0,.4,0,.61-.08,1,.11-.65,0,.33h6.33c-.05-.31-.1-.63-.14-.95.08.65,0-.27,0-.4-.08-.69-.14-1.38-.18-2.08-.08-1.34-.09-2.67,0-4h-6.57c.05.44,0,.87.05,1.3s.13-.43,0,0c-.07.23-.11.47-.18.71l6.45.87v-4.79h-6.56a11.37,11.37,0,0,1,0,1.43c0,.35-.05.29,0,0-.06.29-.11.56-.19.84l6.45.88c0-.73,0-1.45.1-2.17,0-.06.15-1,0-.36.08-.41.14-.81.23-1.22l-5.49,1.45c-1.06-.89-.64-3.14.51-3.73l4.94,2.84a9.78,9.78,0,0,1,0-1.21c0-.39,0-.4,0,0,0-.2.09-.4.14-.59l-6.44-.87,0,1.23h6.57v-1a3.29,3.29,0,1,0-6.57,0v.68a3.29,3.29,0,0,0,6.57,0Z"/><text class="cls-6" transform="translate(34.58 768.58)">Bring empty ja<tspan class="cls-7" x="215.88" y="0">r</tspan><tspan x="228.27" y="0">s or other </tspan><tspan x="105.48" y="36">con</tspan><tspan class="cls-8" x="159.54" y="36">t</tspan><tspan x="171.57" y="36">aine</tspan><tspan class="cls-7" x="235.08" y="36">r</tspan><tspan x="247.47" y="36">s</tspan><tspan x="12.25" y="72" xml:space="preserve"> and </tspan><tspan class="cls-9" x="84.31" y="72">w</tspan><tspan x="107.53" y="72">eigh them on our </tspan><tspan x="142.47" y="108">scal</tspan><tspan class="cls-8" x="202.05" y="108">e</tspan><tspan x="218.97" y="108">. </tspan></text><text class="cls-10" transform="translate(20.28 684.37)">1.</text><path class="cls-5" d="M421.9,113.67s-76.44-6-83.9,17.09.45,55.66,23,58.64l4.75-25.78s-13.52-2.33-8.77-14.54,32.25-2.93,41.17.41c13.35,5,6.11,29.17,6.11,29.17L379.17,324.54l137.73,4.07L487.16,133.2s9.39-5.42,20.25,1.36,2,28.5-.68,33.92-52.61,27.74-52.61,27.74l4.6,20.35,49.36-22.3s38-33.25,35.28-55.64-56.2-25.78-56.2-25.78"/><path class="cls-11" d="M420.43,54.89v7.34h5.87s2.06,1.15,0,2.45-6.17,1.47-5.87,5.39,1.47,43.6,1.47,43.6,32.33,8.16,65.26-.82V65.5l-5.29-2.78,5.29.33V55.87Z"/><path class="cls-3" d="M440.73,75.16a22.38,22.38,0,0,1,10.45,1.75,20.8,20.8,0,0,1-20.4,1.89A22.37,22.37,0,0,1,440.73,75.16Z"/><path class="cls-3" d="M466.86,75.23a22.39,22.39,0,0,1,10,3.6A20.73,20.73,0,0,1,456.42,77,22.33,22.33,0,0,1,466.86,75.23Z"/><circle class="cls-5" cx="438.92" cy="90.71" r="6.37"/><circle class="cls-5" cx="470.85" cy="90.71" r="6.37"/><path class="cls-3" d="M455,102.53l-.65,0c-3.55-.31-5-3.84-5.24-5.66a.87.87,0,1,1,1.73-.25h0a6.91,6.91,0,0,0,.73,2.08,3.84,3.84,0,0,0,5.86,1.25,6,6,0,0,0,1.49-3.85.88.88,0,1,1,1.75,0,7.68,7.68,0,0,1-2.06,5.14A5.15,5.15,0,0,1,455,102.53Z"/><path class="cls-4" d="M438,76.49a4.6,4.6,0,0,0,1.67,3.26.92.92,0,0,0,.85.23.89.89,0,0,0,.61-.61,2.16,2.16,0,0,0,0-1.1c-.06-.23-.14-.46-.18-.7l0,.23a1,1,0,0,1,0-.25l0,.23a.94.94,0,0,1,0-.16l-.09.21.05-.1h-1.5a24.9,24.9,0,0,0,1.66,2.17.85.85,0,0,0,1.05.14.92.92,0,0,0,.41-1,5,5,0,0,0-.6-1.62,4.82,4.82,0,0,0-1.06-1.32,1.52,1.52,0,0,0-1.34-.41,1.38,1.38,0,0,0-.94.91,2.42,2.42,0,0,0,.54,2,7.82,7.82,0,0,0,.6.9,1.32,1.32,0,0,0,.78.47,1.61,1.61,0,0,0,.58,0,.91.91,0,0,0,.52-.4,1,1,0,0,0,.09-.68.88.88,0,0,0-.41-.52,1.09,1.09,0,0,0-.67-.09h0l.24,0h-.08l.23,0-.1,0,.21.08-.13-.07.17.14a1.8,1.8,0,0,1-.19-.2l.14.18c-.16-.22-.29-.46-.43-.68a7.53,7.53,0,0,1-.41-.73l.09.21a1.43,1.43,0,0,1-.09-.27l0,.23a1.34,1.34,0,0,1,0-.2l0,.23a.57.57,0,0,1,0-.14l-.09.2.08-.12-.14.17a.47.47,0,0,1,.1-.1l-.18.14.09-.05-.2.09a.29.29,0,0,1,.1,0l-.23,0h.08l-.23,0,.12,0-.2-.09.18.11-.17-.13a3.53,3.53,0,0,1,.63.65l-.14-.18a4.67,4.67,0,0,1,.58,1l-.09-.21a4.59,4.59,0,0,1,.28,1l1.46-.85c-.23-.27-.45-.55-.67-.83l.14.17c-.3-.38-.58-.76-.86-1.16a.87.87,0,0,0-.75-.43.85.85,0,0,0-.75.43,1.71,1.71,0,0,0-.16,1.31c.06.27.16.53.2.8l0-.23a2.26,2.26,0,0,1,0,.26l0-.23,0,.14,1.46-.38a3.69,3.69,0,0,1-.65-.66l.13.18a4.35,4.35,0,0,1-.48-.84l.09.21a3.79,3.79,0,0,1-.26-.93l0,.23c0-.07,0-.15,0-.22a1,1,0,0,0-.26-.62.88.88,0,0,0-1.49.62Z"/><path class="cls-4" d="M464.33,76.53A4.61,4.61,0,0,0,466,79.79a.94.94,0,0,0,.85.22.89.89,0,0,0,.61-.61,2.12,2.12,0,0,0,0-1.09,6.15,6.15,0,0,1-.18-.71l0,.23a1,1,0,0,1,0-.24l0,.23a1,1,0,0,1,0-.17l-.09.21a.93.93,0,0,0,.05-.1h-1.51c.52.76,1.08,1.48,1.66,2.18a.89.89,0,0,0,1.06.14.92.92,0,0,0,.4-1,4.93,4.93,0,0,0-.59-1.62,4.71,4.71,0,0,0-1.07-1.32,1.47,1.47,0,0,0-1.33-.41,1.36,1.36,0,0,0-.94.91,2.38,2.38,0,0,0,.54,2,6.81,6.81,0,0,0,.6.91,1.58,1.58,0,0,0,.43.34,1.14,1.14,0,0,0,.35.13,1.37,1.37,0,0,0,.57,0,.86.86,0,0,0,.53-.4A.87.87,0,0,0,468,79a.84.84,0,0,0-.4-.52,1,1,0,0,0-.67-.09h0l.23,0a.09.09,0,0,1-.07,0l.23,0-.1,0,.21.09-.13-.07.17.13a1.21,1.21,0,0,1-.19-.2l.13.18a7.74,7.74,0,0,1-.42-.68,7.38,7.38,0,0,1-.41-.72l.09.21a1.31,1.31,0,0,1-.09-.28l0,.24a1.47,1.47,0,0,1,0-.21l0,.23a.74.74,0,0,1,0-.14l-.09.21s.05-.09.07-.13l-.13.18a.47.47,0,0,1,.1-.1l-.18.13.09-.05-.21.09.11,0-.23,0a.11.11,0,0,1,.08,0l-.23,0,.12,0-.21-.09a.76.76,0,0,1,.19.12l-.17-.14a4.84,4.84,0,0,1,.63.65l-.14-.17a4.6,4.6,0,0,1,.58,1l-.09-.21a4.59,4.59,0,0,1,.28,1l1.46-.85c-.23-.27-.45-.55-.67-.83l.13.18c-.29-.38-.57-.77-.85-1.17a.88.88,0,0,0-1.51,0,1.76,1.76,0,0,0-.15,1.31c0,.27.16.53.2.81l0-.23a1,1,0,0,1,0,.25l0-.23a.83.83,0,0,1,0,.15l1.46-.39a3.94,3.94,0,0,1-.64-.65l.13.17a4.07,4.07,0,0,1-.48-.83l.08.2a3.76,3.76,0,0,1-.25-.93l0,.23a1.49,1.49,0,0,1,0-.21.94.94,0,0,0-.26-.62.9.9,0,0,0-.62-.26.89.89,0,0,0-.87.88Z"/><circle class="cls-12" cx="476.26" cy="109.96" r="1.7"/><circle class="cls-5" cx="469.15" cy="107.68" r="1.7"/><circle class="cls-2" cx="476.26" cy="104.06" r="1.7"/><path class="cls-12" d="M453.3,88.9l-.05,0H455l-.06,0,.8,2,0,0-.81,1,.05,0-1.35.18h0a1.74,1.74,0,0,0,2-.8,2.15,2.15,0,0,0,0-2.1,2,2,0,0,0-3.46,0,2.12,2.12,0,0,0,0,2.11,1.73,1.73,0,0,0,1.5.86,1.85,1.85,0,0,0,1.51-.86,3.39,3.39,0,0,0,.44-2.69c-.06-.34-.15-.67-.24-1,0-.12-.07-.24-.1-.36s-.18-.69-.06-.26a4.34,4.34,0,0,1-.06-1c0-.42,0-.84,0-1.27l-.07-2.39a1.75,1.75,0,0,0-3.5,0c.05,1.46,0,2.93.15,4.39a13,13,0,0,0,.41,2.22c0,.12.07.25.09.37a2.21,2.21,0,0,1,0,.25c0-.26,0-.29,0-.1s-.06.49,0,0c-.06.18,0,.14.05-.1a1.27,1.27,0,0,1-.13.19h3l0-.08.24.88-1,1.29h-.93l-1-1.3.24-.89,0,.09,2-.81A1.82,1.82,0,0,0,452.38,90a1.8,1.8,0,0,0,.81,2l.06,0A1.69,1.69,0,0,0,455,92l.05,0a1.74,1.74,0,1,0-1.76-3Z"/><path class="cls-12" d="M452.52,88.61c.09.32,0-.35,0-.14s.07-.42,0-.11a8.08,8.08,0,0,0-.11.86,2.25,2.25,0,0,0,1.05,2,2.06,2.06,0,0,0,2.48-.41,3,3,0,0,0,.7-2.05A20,20,0,0,0,456,83L452.6,84A13,13,0,0,1,453,85.6c0,.12.06.26.07.39,0-.47,0,0,0,.13q0,.43.06.87c0,.27,0,.53,0,.8s0,.29,0,.44,0,.12,0,.18,0,.16,0-.1a2.37,2.37,0,0,1-.08.34c-.05.14-.05.14,0,0s.06-.15,0,0c.19-.22.22-.26.1-.14l.22-.17a1.17,1.17,0,0,1,1.49.22.7.7,0,0,1,.32.45c0-.15,0-.15,0,0s0,.16,0,0v-.25c0-.27,0-.53.05-.8,0-.61.09-1.21.15-1.82s.12-1.21.19-1.81c0-.27.06-.55.1-.83s0-.27,0-.41c-.06.47,0-.14,0-.23a1.9,1.9,0,0,0-.18-1.34,1.83,1.83,0,0,0-1-.81,1.78,1.78,0,0,0-2.15,1.22c-.18,1.29-.35,2.57-.47,3.86-.06.58-.11,1.16-.15,1.75a9.75,9.75,0,0,0-.06,1.71,2.53,2.53,0,0,0,1.45,2.23,2.29,2.29,0,0,0,2.5-.53c1-1,1-2.52,1-3.81A16.18,16.18,0,0,0,456,83a1.77,1.77,0,0,0-2.15-1.22A1.79,1.79,0,0,0,452.6,84c.12.47.22.94.31,1.42l.06.4s.06.44,0,.17,0,.11,0,.17,0,.27,0,.4c.05.5.07,1,.08,1.5q0,.33,0,.66c0,.14-.08.46,0,0l0,.11c.27-.71.94-.94,2-.66l.63.62a1.33,1.33,0,0,1,.12.55,1.2,1.2,0,0,1,0-.19c0,.3,0,.36,0,.17l0-.16a3.38,3.38,0,0,0,0-1.45,1.75,1.75,0,1,0-3.37.93Z"/><circle class="cls-12" cx="481.31" cy="105.98" r="1.7"/><path class="cls-5" d="M452.84,195.07a15.18,15.18,0,0,0-10.64-1.37,13.32,13.32,0,0,0-4.86,2.13,3.82,3.82,0,0,0-1.65,2.18,3.29,3.29,0,0,0,.51,2.53c1.32,1.94,3.67,2.1,5.82,2.06a.88.88,0,0,0,0-1.75c-1.39,0-3.17.13-4.18-1a1.6,1.6,0,0,1-.44-1.46,2.69,2.69,0,0,1,1.26-1.32,13.38,13.38,0,0,1,8.6-1.92,12.76,12.76,0,0,1,4.7,1.46c1,.53,1.87-1,.88-1.51Z"/><path class="cls-11" d="M387.39,210.05v9.41h5.45a1.91,1.91,0,0,1,0,3.14c-1.91,1.67-5.73,1.88-5.45,6.9s1.36,55.82,1.36,55.82,30,10.46,60.58-1V223.64l-4.91-3.55,4.91.41v-9.2Z"/><path class="cls-3" d="M425.4,228.31a8.76,8.76,0,0,0,2.73,2.05,20.48,20.48,0,0,0,3.26,1.42,21.53,21.53,0,0,0,7.07,1.12.89.89,0,0,0,.84-1.11c-.36-1-1.58-1.59-2.49-2.07a18.63,18.63,0,0,0-3-1.26,19.28,19.28,0,0,0-3.26-.68,5.08,5.08,0,0,1-2.59-.57l-.39,1.46a7.86,7.86,0,0,1,5.74,1.29,28.18,28.18,0,0,0,2.57,1.59,12.81,12.81,0,0,1,2.68,1.31l1.06-1.37a20,20,0,0,0-3.54-1.66c-.92-.33-2.69-1-3.28.21l1.2-.32a14,14,0,0,0-2-.9c-.92-.35-1.54,1.14-.67,1.59l.83.43.68-1.59-1.62-.54c-.58-.19-1.34.46-1.08,1.08a2.75,2.75,0,0,0,1.75,1.61.88.88,0,0,0,.85-1.46,6.07,6.07,0,0,0-2.17-1.39.88.88,0,0,0-1.07,1.08,4.53,4.53,0,0,0,2,2.42c1,.58,1.79-.88.88-1.51a23.56,23.56,0,0,0-4.6-2.44c-.7-.28-1.39.68-1,1.28,2.85,4.25,8.65,4,13.11,3.43a.89.89,0,0,0,.62-1.49c-1.3-1.67-3.53-2.28-5.5-2.76-2.5-.61-5-1.1-7.53-1.63-1.09-.23-1.56,1.45-.46,1.68,2.4.51,4.81,1,7.19,1.55,1.8.43,3.87.87,5.06,2.4l.62-1.49a22.41,22.41,0,0,1-7,.09,7.13,7.13,0,0,1-4.58-2.66l-1,1.29a21.64,21.64,0,0,1,4.18,2.26l.88-1.51a2.69,2.69,0,0,1-1.22-1.38l-1.07,1.08a4,4,0,0,1,1.4.93l.85-1.46a.82.82,0,0,1-.53-.39l-1.08,1.08,1.62.53a.88.88,0,0,0,.68-1.6l-.84-.42-.67,1.59a11,11,0,0,1,1.55.73.87.87,0,0,0,1.19-.31l-.14.11c-.17,0-.21.05-.1.05h.16c.18,0,.38.11.56.16.48.15.95.31,1.42.5a16.12,16.12,0,0,1,2.53,1.26c.82.49,1.84-.73,1.05-1.38a13.46,13.46,0,0,0-3-1.55,30.71,30.71,0,0,1-2.89-1.78,9.49,9.49,0,0,0-6.83-1.3.88.88,0,0,0-.39,1.46,5.17,5.17,0,0,0,2.84,1,21.78,21.78,0,0,1,2.91.47,15.49,15.49,0,0,1,2.82,1,14.73,14.73,0,0,1,1.31.68l.69.43.29.2c.08,0,.13.22.07,0l.84-1.1a20,20,0,0,1-6.46-1,19,19,0,0,1-2.86-1.23,7.88,7.88,0,0,1-2.51-1.84.87.87,0,0,0-1.23,0,.89.89,0,0,0,0,1.23Z"/><path class="cls-4" d="M430.36,228a4.48,4.48,0,0,0,.6,3.44.89.89,0,0,0,1.51,0,2.36,2.36,0,0,0,.28-1.22V230s0-.07,0-.11,0,.09,0,.09.1-.31,0-.12,0,0,0,0-.17.19,0,.06l-1.46-.39c.23.75.49,1.48.79,2.21a.85.85,0,0,0,1,.62.81.81,0,0,0,.5-.24,1,1,0,0,0,.25-.62,5,5,0,0,0-.09-1.68,4.29,4.29,0,0,0-.63-1.51,1.4,1.4,0,0,0-1.12-.66,1.36,1.36,0,0,0-1.12.65,2.61,2.61,0,0,0,0,2.05,4.53,4.53,0,0,0,.29.95,1.26,1.26,0,0,0,.88.71.92.92,0,0,0,.67-.09.84.84,0,0,0,.4-.52.88.88,0,0,0-.09-.67.81.81,0,0,0-.52-.4c-.18,0,.06,0,.12.08s.08.06,0,0c.1.13.12.15.07.08s0-.14,0,0c0,0,0-.08,0-.12-.08-.24-.12-.49-.18-.73s-.07-.28-.1-.43,0-.06,0-.09,0,0,0,.09a1.15,1.15,0,0,1,0-.18c0,.13,0,.15,0,0s0-.06,0,.08c.07-.14-.13.13,0,0a.39.39,0,0,1-.17.11c-.07,0-.08,0,0,0a.52.52,0,0,1-.45-.06c.06,0,.06,0,0,0s-.07-.05,0,0l0-.06s.05.08.07.13a3.24,3.24,0,0,1,.17.32c.09.2-.05-.15,0,0a1.42,1.42,0,0,0,.05.16,3.57,3.57,0,0,1,.1.35,1.06,1.06,0,0,1,0,.19.76.76,0,0,0,0,.16c0-.14,0-.16,0-.06v.05c0,.07,0,.13,0,.2a4.71,4.71,0,0,1,0,.75l1.71-.23c-.3-.72-.56-1.46-.79-2.2a.88.88,0,0,0-1.46-.39A1.82,1.82,0,0,0,431,230c0,.16,0,.32,0,.48s0,.18,0,0,0,0,0,0,0,.11,0,.12.1-.21,0-.07h1.51l-.18-.29a1.19,1.19,0,0,1-.08-.16c0-.06-.07-.22,0,0-.06-.21-.14-.42-.19-.64l0-.16c0-.06,0,0,0,.1a.34.34,0,0,1,0-.1c0-.11,0-.22,0-.33s0-.21,0-.32,0,.19,0,0a1.55,1.55,0,0,1,0-.21.87.87,0,1,0-1.68-.47Z"/><path class="cls-3" d="M398.44,230.83a9.15,9.15,0,0,0,3.45.95,19,19,0,0,0,3.46.13,21.5,21.5,0,0,0,6.93-1.53.89.89,0,0,0,.38-1.46c-.65-.76-2-.8-3-.91a16.41,16.41,0,0,0-3.21-.07,19.33,19.33,0,0,0-3.21.51c-.92.24-2,.73-2.92.44l.21,1.59a7.7,7.7,0,0,1,5.66-1c1.06.2,2.1.48,3.18.58a14.75,14.75,0,0,1,3.11.28l.47-1.68a19.85,19.85,0,0,0-4.07-.26c-1.1,0-2.83.05-2.91,1.52l1.1-.84a14.26,14.26,0,0,0-2.16-.15.88.88,0,1,0,0,1.75l.93.09V229l-1.7.1a.88.88,0,0,0-.62,1.49,2.59,2.59,0,0,0,2,.77.89.89,0,0,0,.84-.64.87.87,0,0,0-.4-1,6.23,6.23,0,0,0-2.52-.54.88.88,0,0,0-.62,1.49,4.4,4.4,0,0,0,2.59,1.4.9.9,0,0,0,1.07-.61.88.88,0,0,0-.61-1.07,23.14,23.14,0,0,0-5.18-.61.88.88,0,0,0-.44,1.62,8.83,8.83,0,0,0,6.59,1.05,24,24,0,0,0,6.9-2.79.89.89,0,0,0,0-1.51c-2-1.17-4.38-.86-6.54-.55-2.48.35-5,.8-7.43,1.22a.89.89,0,0,0-.61,1.07.9.9,0,0,0,1.08.61c2.3-.39,4.61-.8,6.92-1.14,1.82-.28,4-.69,5.69.3v-1.51a23.27,23.27,0,0,1-6.19,2.56,7.14,7.14,0,0,1-5.53-.82l-.44,1.63a21.43,21.43,0,0,1,4.72.55l.46-1.68a2.94,2.94,0,0,1-1.82-1l-.61,1.49a4,4,0,0,1,1.64.31l.44-1.63a1,1,0,0,1-.81-.25l-.61,1.49,1.7-.1a.88.88,0,0,0,0-1.75l-.93-.09v1.75a10.76,10.76,0,0,1,1.7.08.88.88,0,0,0,1.1-.84l-.2.38.1,0s.08,0,.11,0a4.48,4.48,0,0,1,.57-.05,13.76,13.76,0,0,1,1.43,0,18.12,18.12,0,0,1,2.76.21.87.87,0,0,0,.47-1.68,15.83,15.83,0,0,0-3.51-.34c-1.1-.1-2.16-.43-3.25-.6a9.41,9.41,0,0,0-6.55,1.26.89.89,0,0,0,.21,1.6,5.25,5.25,0,0,0,3-.2,18.29,18.29,0,0,1,2.94-.62,16.49,16.49,0,0,1,3-.07,13.59,13.59,0,0,1,1.43.16c.32.06.95.06,1.17.32l.38-1.46a20.13,20.13,0,0,1-6.31,1.45,18.54,18.54,0,0,1-3.16-.06,7.88,7.88,0,0,1-3-.77.87.87,0,0,0-.88,1.51Z"/><path class="cls-4" d="M405.32,227.3a4.49,4.49,0,0,0-1.11,3.3.93.93,0,0,0,.44.75.87.87,0,0,0,.88,0,2.28,2.28,0,0,0,.82-.92c.07-.12.16-.24.22-.37-.09.18-.1.12,0,.05s.13-.1,0,0,0,0,0,0-.21.07-.06,0l-1.08-1.08c-.16.85-.29,1.7-.37,2.55a.86.86,0,0,0,.64.84.91.91,0,0,0,1-.4,4.8,4.8,0,0,0,.82-2c.14-.86.22-2.13-.86-2.42a1.4,1.4,0,0,0-1.39.44,2.84,2.84,0,0,0-.54,1.2,6.82,6.82,0,0,0-.26,1.19,1.58,1.58,0,0,0,.05.57,1.36,1.36,0,0,0,.54.69.87.87,0,0,0,1.28-1,1,1,0,0,0-.4-.52c.2.23.27.3.21.19s0,0,0,.11,0,.14,0,0,0,.2,0,0l0-.13c.06-.26.13-.53.2-.79s.08-.25.11-.37-.06.1,0,0a.3.3,0,0,1,0-.08c0-.06,0-.07,0,0s0,.06,0,0l-.1.07c.15-.1-.16.05,0,0a.52.52,0,0,1-.62-.32c.06.15,0-.2,0,0s0,.1,0,.15,0,.23,0,.34,0,.15,0,.18c0-.12,0-.14,0-.07s0,.06,0,.09,0,.24-.08.36-.07.22-.11.33a.34.34,0,0,1,0,.14c0-.11,0-.12,0,0l0,.05a4.61,4.61,0,0,1-.38.65l1.62.44c0-.19,0-.38.07-.56v-.14c0,.11,0,.12,0,0s0-.19,0-.28c.06-.38.12-.75.2-1.12a.88.88,0,0,0-1.08-1.08,1.83,1.83,0,0,0-1.06.91c-.08.14-.15.28-.24.41l-.06.09c-.06.09.14-.16,0-.06s-.07.06-.08.09.18-.13,0,0l1.31.76a3.75,3.75,0,0,1,0-.67v-.09c0,.13,0,.16,0,.09l0-.15a2.14,2.14,0,0,1,.09-.34,1.09,1.09,0,0,1,.05-.17s.07-.19,0-.06,0,0,0-.06l.08-.15a3.21,3.21,0,0,1,.19-.31.71.71,0,0,1,.1-.14l-.06.08.07-.09a.87.87,0,0,0-1.23-1.24Z"/><path class="cls-12" d="M419.29,230.29s-2.46,1.66-2.94,2.64-1.52,2-1.88,3.58-1,4.43.29,5.18a3,3,0,0,0,3.35.25,6.25,6.25,0,0,0,2.88-4.27,28.18,28.18,0,0,0-.26-5Z"/><path class="cls-12" d="M397.93,271.51s-2.45,1.65-2.94,2.64-1.51,2-1.88,3.57-1,4.44.3,5.19a3,3,0,0,0,3.35.25,6.28,6.28,0,0,0,2.87-4.27,28.48,28.48,0,0,0-.25-5Z"/><path class="cls-12" d="M401.68,277.29s.42,2.93,1.09,3.79,1.17,2.25,2.4,3.26,3.56,2.81,4.79,2a3,3,0,0,0,1.69-2.9,6.23,6.23,0,0,0-2.59-4.45,28.35,28.35,0,0,0-4.63-2Z"/><path class="cls-12" d="M409.73,275s.42,2.92,1.09,3.79,1.17,2.25,2.4,3.26,3.57,2.81,4.8,2a3,3,0,0,0,1.68-2.91,6.23,6.23,0,0,0-2.59-4.45,29.38,29.38,0,0,0-4.62-2Z"/><path class="cls-12" d="M425.66,276s-2.73,1.13-3.4,2-1.89,1.69-2.56,3.13-1.83,4.15-.74,5.14a3,3,0,0,0,3.24.91,6.26,6.26,0,0,0,3.67-3.61,28.93,28.93,0,0,0,.74-5Z"/><path class="cls-12" d="M398.88,266.36s.42,2.93,1.09,3.8,1.17,2.25,2.4,3.25,3.56,2.81,4.79,2a3,3,0,0,0,1.69-2.91,6.25,6.25,0,0,0-2.59-4.45,28.35,28.35,0,0,0-4.63-2Z"/><path class="cls-12" d="M393,275.08s2-2.18,2.24-3.26,1-2.32,1-3.92-.09-4.53-1.5-5a3,3,0,0,0-3.32.54,6.21,6.21,0,0,0-1.79,4.82,27.88,27.88,0,0,0,1.42,4.82Z"/><path class="cls-3" d="M419.18,249.77l-.75,0a6.94,6.94,0,0,1-5.09-2.29,5.67,5.67,0,0,1-1.17-2.17.89.89,0,0,1,.66-1,.87.87,0,0,1,1,.65c0,.13.77,2.91,4.65,3.12,2.08.11,3.63-.29,4.6-1.2a3.31,3.31,0,0,0,1.07-2.23.89.89,0,0,1,.88-.86.88.88,0,0,1,.87.87,5.15,5.15,0,0,1-1.59,3.47A7.25,7.25,0,0,1,419.18,249.77Z"/><path class="cls-12" d="M451.31,205c-.13-.71-1.19-.57-1.84-.24L442,208.59a8.67,8.67,0,0,0-3.26,2.38,3,3,0,0,0,0,3.73c1.1,1.08,3,.68,4.3-.06s2.64-1.79,4.17-1.83a13.17,13.17,0,0,0-5.51,8.49,2,2,0,0,0,.41,1.92,1.9,1.9,0,0,0,1.52.17,12.27,12.27,0,0,0,6.49-3.48c-1.84,1.32-2.6,3.64-3.25,5.81-.46,1.49-.7,3.53.7,4.23,1.19.6,2.55-.35,3.54-1.23l4.87-4.35"/><path class="cls-11" d="M373.07,173.57,345.8,148.2l5.22-4.68,28.09,27.87,42,19.32-13.9,16.48s-28.26-12.59-28.77-14S373.07,173.57,373.07,173.57Z"/><path class="cls-12" d="M361,189.4a12.92,12.92,0,0,0,6.69,2.29c2.68.19,5.68-1.38,6.11-4a5.51,5.51,0,0,0-2.16-4.92,16.18,16.18,0,0,0-5-2.52,26.24,26.24,0,0,0,10.7,1.23c.7-.06,1.55-.28,1.71-1a1.61,1.61,0,0,0-.16-1,11.12,11.12,0,0,0-8.63-6.68,9.49,9.49,0,0,0,7.42.6,1.8,1.8,0,0,0,1.09-.76,1.9,1.9,0,0,0-.38-1.77c-2.87-4.47-8.18-4.64-13.48-4.91"/><circle class="cls-12" cx="411.06" cy="204.51" r="2.2"/><path class="cls-5" d="M383.64,187.13a2.2,2.2,0,1,1,2.2,2.2,2.21,2.21,0,0,1-2.2-2.2"/><circle class="cls-3" cx="396.26" cy="188.22" r="2.2"/><circle class="cls-3" cx="400.55" cy="197.95" r="2.2"/><circle class="cls-12" cx="420.36" cy="215.17" r="2.2"/><path class="cls-12" d="M404.4,186.91a10.86,10.86,0,0,0,0,3.43,13.07,13.07,0,0,0,1.23,3.3c.78,1.13,2.3,3.2,3.52,2.81a2.65,2.65,0,0,0,2.11-2,5.45,5.45,0,0,0-1.1-4.34,25.24,25.24,0,0,0-3.39-2.75Z"/><text class="cls-10" transform="translate(233.42 328.68)"><tspan class="cls-13">2</tspan><tspan x="100.37" y="0">.</tspan></text><text class="cls-6" transform="translate(328.1 397.13)">Find what <tspan class="cls-14" x="152.55" y="0">y</tspan><tspan x="169.29" y="0">ou need and</tspan><tspan x="86.46" y="36">fill </tspan><tspan class="cls-14" x="128.55" y="36">y</tspan><tspan x="145.29" y="36">our ja</tspan><tspan class="cls-7" x="230.07" y="36">r</tspan><tspan x="242.46" y="36">s.</tspan></text><path class="cls-15" d="M935.76,240.38,880.45,41.43s91.89-93.22,208.75,0l-58.88,199Z"/><circle class="cls-1" cx="984.83" cy="77.71" r="45.63"/><path class="cls-3" d="M1013.57,56.9a1.88,1.88,0,0,1-1.12-.37C999.65,47.18,986.37,44.29,973,48a45.19,45.19,0,0,0-16.54,8.45,1.91,1.91,0,1,1-2.54-2.84,48,48,0,0,1,17.9-9.25c10.06-2.79,25.67-3.48,42.91,9.13a1.9,1.9,0,0,1-1.13,3.44Z"/><rect class="cls-1" x="895.71" y="238.44" width="175.99" height="44.76"/><path class="cls-4" d="M966.06,60.11a1,1,0,0,1-.86-.45l-6.44-9.37a1,1,0,1,1,1.71-1.18l6.44,9.37a1,1,0,0,1-.26,1.44A1,1,0,0,1,966.06,60.11Z"/><path class="cls-4" d="M974.57,56.54a1,1,0,0,1-1-.68l-3.85-10.7a1,1,0,0,1,.63-1.33,1,1,0,0,1,1.33.62l3.85,10.7a1,1,0,0,1-.63,1.33A1,1,0,0,1,974.57,56.54Z"/><path class="cls-4" d="M983.87,55.19a1,1,0,0,1-1-1V42.78a1,1,0,0,1,2.08,0V54.15A1,1,0,0,1,983.87,55.19Z"/><path class="cls-4" d="M993.66,56.61a1.12,1.12,0,0,1-.35-.06,1,1,0,0,1-.63-1.33l3.85-10.7a1.06,1.06,0,0,1,1.34-.63,1,1,0,0,1,.62,1.34l-3.85,10.69A1,1,0,0,1,993.66,56.61Z"/><path class="cls-4" d="M1001.94,59.88a1,1,0,0,1-.59-.19,1,1,0,0,1-.27-1.44l6.44-9.37a1,1,0,1,1,1.72,1.18l-6.44,9.37A1.06,1.06,0,0,1,1001.94,59.88Z"/><path class="cls-12" d="M978.65,122.92c-.33,0-14.23-58.22-14.23-58.22l4.43-1.4,13.75,60Z"/><path class="cls-11" d="M948.84,157.67v10.26h5.95a2.07,2.07,0,0,1,0,3.41c-2.08,1.83-6.24,2.06-5.95,7.53s1.49,60.86,1.49,60.86,32.72,11.39,66-1.14V172.48l-5.35-3.87,5.35.46V159Z"/><path class="cls-3" d="M990.34,177.51a9.58,9.58,0,0,0,3,2.26,23,23,0,0,0,3.53,1.53,23.54,23.54,0,0,0,7.63,1.19.88.88,0,0,0,.83-1.1c-.36-1.09-1.7-1.7-2.66-2.2a19.09,19.09,0,0,0-3.31-1.37,20.35,20.35,0,0,0-3.55-.74c-.89-.1-2.11,0-2.85-.64l-.38,1.45a8.06,8.06,0,0,1,3.28.06,9.46,9.46,0,0,1,3,1.34,27.54,27.54,0,0,0,2.88,1.78,13.62,13.62,0,0,1,2.87,1.4l1.05-1.36a21.64,21.64,0,0,0-3.81-1.78c-.95-.35-2.91-1.16-3.51.17l1.19-.31a14,14,0,0,0-2.12-1c-.92-.34-1.54,1.14-.67,1.58l.91.47.67-1.58-1.77-.59c-.58-.19-1.32.46-1.06,1.07a2.83,2.83,0,0,0,1.84,1.7.88.88,0,0,0,.85-1.45,6.46,6.46,0,0,0-2.33-1.49.88.88,0,0,0-1.07,1.07,5,5,0,0,0,2.16,2.59c1,.57,1.78-.87.88-1.5a25.66,25.66,0,0,0-5-2.65c-.7-.28-1.38.68-1,1.27,3.08,4.61,9.41,4.27,14.22,3.7a.88.88,0,0,0,.62-1.48c-1.42-1.83-3.86-2.48-6-3-2.71-.66-5.44-1.19-8.16-1.77-1.09-.23-1.56,1.44-.46,1.67,2.61.56,5.23,1.08,7.83,1.69,2,.47,4.25,1,5.56,2.64l.61-1.48a24.86,24.86,0,0,1-7.7.09,7.81,7.81,0,0,1-5-2.93l-1,1.27a23.5,23.5,0,0,1,4.57,2.48l.88-1.5a3.07,3.07,0,0,1-1.37-1.56l-1.06,1.07a4.54,4.54,0,0,1,1.56,1l.84-1.45a1,1,0,0,1-.63-.48l-1.07,1.07,1.77.58a.87.87,0,0,0,.66-1.59l-.9-.46-.67,1.58a11.12,11.12,0,0,1,1.71.81.87.87,0,0,0,1.18-.31c-.08.19-.3,0-.09.12s.45.11.67.18q.79.24,1.56.54a19.72,19.72,0,0,1,2.8,1.39c.82.49,1.82-.72,1-1.36a14.23,14.23,0,0,0-3.21-1.68,36.21,36.21,0,0,1-3.14-1.93,10.25,10.25,0,0,0-7.4-1.42.87.87,0,0,0-.38,1.44,5.56,5.56,0,0,0,3.1,1.06,20.35,20.35,0,0,1,3.2.53,16.8,16.8,0,0,1,3.1,1.1c.49.24,1,.49,1.44.77.25.15.5.3.74.47.08,0,.32.16.35.26l.84-1.1a21.46,21.46,0,0,1-7-1.08,20,20,0,0,1-3.13-1.32,8.66,8.66,0,0,1-2.8-2.06.87.87,0,0,0-1.23,0,.89.89,0,0,0,0,1.22Z"/><path class="cls-4" d="M995.77,177.28a4.79,4.79,0,0,0,.65,3.67.88.88,0,0,0,1.5,0,2.48,2.48,0,0,0,.29-1.28v-.24s0-.08,0-.12,0,0,0,.08a.5.5,0,0,1,0-.13s.06-.16,0,0,0,0,0,0-.14.17,0,.05l-1.45-.39c.25.82.54,1.62.86,2.41a.9.9,0,0,0,1,.62.82.82,0,0,0,.49-.24,1,1,0,0,0,.26-.61,5.24,5.24,0,0,0-.11-1.81,4.46,4.46,0,0,0-.68-1.64,1.43,1.43,0,0,0-1.14-.67,1.35,1.35,0,0,0-1.14.67,2.73,2.73,0,0,0,0,2.17,4.38,4.38,0,0,0,.31,1,1.31,1.31,0,0,0,.91.74,1,1,0,0,0,.67-.09.87.87,0,0,0-.21-1.58l-.09,0a.38.38,0,0,1,.19.09c.06.06.07.06,0,0l0,.07,0-.06c0-.06,0,0,0,.1,0,0,0-.1,0-.14-.08-.26-.13-.53-.2-.8s-.07-.31-.1-.46a.36.36,0,0,1,0-.1c0-.06,0,0,0,.07a1.21,1.21,0,0,1,0-.19q0,.18,0,0t0,.06c.07-.14-.12.12,0,0a.31.31,0,0,1-.15.1c-.07,0-.08,0,0,0a.55.55,0,0,1-.43-.06c.06,0,.06,0,0,0s-.07-.05,0,0l0-.05.08.14a2.91,2.91,0,0,1,.18.35c.1.21,0-.12,0,.05l.06.17c0,.12.08.25.11.38s.11.3.08.39c0-.13,0-.15,0-.05V180a1.48,1.48,0,0,1,0,.21,3.85,3.85,0,0,1,0,.83l1.71-.23c-.33-.79-.62-1.59-.87-2.41a.87.87,0,0,0-1.44-.38,1.91,1.91,0,0,0-.52,1.38c0,.17,0,.35,0,.52s0,.18,0,0,0,0,0,0l0,.13.05-.12a.59.59,0,0,1,0,.08h1.5c-.07-.11-.14-.21-.2-.32l-.09-.18,0-.06c0-.08,0-.07,0,0,0-.11-.08-.22-.11-.33a2.22,2.22,0,0,1-.09-.37l0-.17c0-.07,0,0,0,.09,0,0,0-.08,0-.12s0-.23,0-.35,0-.23,0-.35,0,.17,0,0,0-.16.05-.23a.89.89,0,0,0-.61-1.07.87.87,0,0,0-1.06.61Z"/><path class="cls-3" d="M960.93,180.25a10.08,10.08,0,0,0,3.73,1,21.24,21.24,0,0,0,3.74.13,23.29,23.29,0,0,0,7.55-1.66.88.88,0,0,0,.39-1.45,2.42,2.42,0,0,0-1.38-.68c-.59-.12-1.19-.22-1.79-.29a17.81,17.81,0,0,0-3.5-.07,19.65,19.65,0,0,0-3.58.58c-1,.26-2.09.76-3.12.44l.21,1.59a8.44,8.44,0,0,1,6.14-1.13c1.18.22,2.35.53,3.55.65a15.52,15.52,0,0,1,3.41.31l.46-1.67a21.22,21.22,0,0,0-4.36-.29c-1.14,0-3.07,0-3.14,1.58l1.1-.84a15.34,15.34,0,0,0-2.34-.16.87.87,0,0,0,0,1.74l1,.1v-1.73l-1.85.1a.88.88,0,0,0-.62,1.48,2.74,2.74,0,0,0,2.17.81.9.9,0,0,0,.84-.63.88.88,0,0,0-.4-1,6.51,6.51,0,0,0-2.71-.58.87.87,0,0,0-.61,1.48,4.59,4.59,0,0,0,2.78,1.5.87.87,0,0,0,.46-1.67,25.31,25.31,0,0,0-5.62-.66.87.87,0,0,0-.44,1.61A9.5,9.5,0,0,0,970.1,182a25.45,25.45,0,0,0,7.52-3,.87.87,0,0,0,0-1.49c-2.13-1.27-4.74-.93-7.08-.6-2.7.39-5.38.88-8.07,1.33a.87.87,0,1,0,.46,1.67c2.52-.42,5-.87,7.57-1.25,2-.3,4.41-.74,6.25.34V177.5a25.31,25.31,0,0,1-6.83,2.81,7.89,7.89,0,0,1-6-.91l-.44,1.61a24.24,24.24,0,0,1,5.16.6l.46-1.67a3.16,3.16,0,0,1-2-1.06l-.61,1.48a4.42,4.42,0,0,1,1.83.35l.44-1.62a1.09,1.09,0,0,1-.94-.3l-.61,1.48,1.85-.11a.87.87,0,0,0,0-1.73l-1-.11v1.74a11.73,11.73,0,0,1,1.87.1.89.89,0,0,0,1.1-.84c0,.33-.29.33.09.25l.57,0c.53,0,1.06-.06,1.58-.06a18.6,18.6,0,0,1,3.07.24.87.87,0,0,0,.46-1.67,16,16,0,0,0-3.79-.37c-1.23-.11-2.43-.48-3.65-.67a10.12,10.12,0,0,0-7,1.38.88.88,0,0,0,.21,1.59,5.84,5.84,0,0,0,3.28-.23,19.73,19.73,0,0,1,3.23-.68,19,19,0,0,1,3.29-.07c.52,0,1.05.1,1.57.19.34.06,1,.08,1.23.36l.38-1.45a22.05,22.05,0,0,1-6.94,1.59,21.64,21.64,0,0,1-3.51-.08,8.36,8.36,0,0,1-3.23-.84.87.87,0,0,0-.88,1.5Z"/><path class="cls-4" d="M968.45,176.54a4.75,4.75,0,0,0-1.18,3.53.87.87,0,0,0,1.31.75,2.4,2.4,0,0,0,.86-1c.07-.13.18-.26.24-.4-.06.15-.1.12,0,0s.12-.11,0,0,0,0,0,0-.2.07,0,0l-1.06-1.06c-.18.91-.32,1.83-.41,2.75a.87.87,0,0,0,.63.84.91.91,0,0,0,1-.4,5.25,5.25,0,0,0,.89-2.14c.14-.89.23-2.23-.88-2.53a1.46,1.46,0,0,0-1.44.46,2.92,2.92,0,0,0-.56,1.27,7.92,7.92,0,0,0-.29,1.26,1.4,1.4,0,0,0,.61,1.31.86.86,0,0,0,1.18-.31.89.89,0,0,0-.31-1.18c.19.22.26.29.2.18s0,0,0,.1,0,.11,0,0-.05.18,0,0l0-.13c.08-.29.16-.58.23-.87,0-.13.08-.27.11-.4s-.05.08,0,0,.14-.17.06-.1,0,.05,0,0l-.09.06c.15-.1-.15.05,0,0a.48.48,0,0,1-.57-.3c.06.15,0-.18,0,0s0,.11,0,.16,0,.25,0,.37a.68.68,0,0,1,0,.2c.07-.2,0,0,0,0a2.74,2.74,0,0,1-.09.39c0,.12-.07.24-.11.36a1,1,0,0,1-.06.16c.11-.18,0,0,0,0a6.23,6.23,0,0,1-.41.71l1.61.43c0-.2.05-.41.07-.61s0-.1,0-.16c0,.11,0,.11,0,0s0-.21,0-.31c.07-.41.14-.82.22-1.22a.87.87,0,0,0-1.07-1.07,1.92,1.92,0,0,0-1.11.95c-.09.15-.17.31-.26.45a.36.36,0,0,1-.07.1c-.05.09.14-.15,0-.05l-.1.09c0-.06.18-.11,0,0l1.31.75a3.56,3.56,0,0,1,0-.73s0-.07,0-.1c0,.12,0,.14,0,.07l0-.15c0-.13.06-.25.1-.38a.64.64,0,0,1,.06-.18s.07-.2,0-.07,0-.05,0-.08l.09-.17a2.9,2.9,0,0,1,.2-.33l.11-.16c-.1.1,0,0,0,0a.87.87,0,1,0-1.23-1.22Z"/><path class="cls-12" d="M983.62,179.74s-2.67,1.8-3.2,2.87-1.66,2.22-2.06,3.9-1.06,4.83.33,5.65a3.3,3.3,0,0,0,3.65.28,6.8,6.8,0,0,0,3.13-4.66,30.71,30.71,0,0,0-.27-5.47Z"/><path class="cls-12" d="M960.34,224.67s-2.68,1.8-3.21,2.87-1.65,2.21-2,3.9-1.06,4.83.33,5.65a3.32,3.32,0,0,0,3.65.28,6.82,6.82,0,0,0,3.13-4.66,30.35,30.35,0,0,0-.28-5.47Z"/><path class="cls-12" d="M964.42,231s.46,3.19,1.19,4.13,1.27,2.46,2.62,3.55,3.88,3.07,5.22,2.18a3.31,3.31,0,0,0,1.84-3.17,6.79,6.79,0,0,0-2.82-4.85,31.09,31.09,0,0,0-5-2.14Z"/><path class="cls-12" d="M973.2,228.47s.46,3.19,1.19,4.14,1.27,2.45,2.62,3.54,3.88,3.07,5.22,2.18a3.31,3.31,0,0,0,1.84-3.17,6.79,6.79,0,0,0-2.82-4.85,31.05,31.05,0,0,0-5-2.14Z"/><path class="cls-12" d="M990.57,229.56s-3,1.24-3.71,2.18-2.06,1.84-2.79,3.42-2,4.52-.8,5.6a3.29,3.29,0,0,0,3.52,1,6.79,6.79,0,0,0,4-3.94,30.43,30.43,0,0,0,.81-5.41Z"/><path class="cls-12" d="M961.37,219.06s.46,3.19,1.19,4.13,1.27,2.45,2.62,3.55,3.88,3.06,5.22,2.18a3.31,3.31,0,0,0,1.84-3.17,6.82,6.82,0,0,0-2.82-4.85,31.05,31.05,0,0,0-5-2.14Z"/><path class="cls-12" d="M955,228.56s2.17-2.38,2.44-3.55,1.08-2.54,1.07-4.27-.1-5-1.63-5.42a3.32,3.32,0,0,0-3.62.59,6.78,6.78,0,0,0-2,5.26,31,31,0,0,0,1.55,5.26Z"/><path class="cls-3" d="M983.51,200.88c-.27,0-.54,0-.82,0a7.41,7.41,0,0,1-5.48-2.47,5.66,5.66,0,0,1-1.26-2.33.86.86,0,0,1,.65-1,.88.88,0,0,1,1,.65c0,.15.84,3.23,5.14,3.46,2.31.13,4-.33,5.1-1.35a3.75,3.75,0,0,0,1.17-2.46.87.87,0,0,1,1.73,0,5.51,5.51,0,0,1-1.7,3.72A7.82,7.82,0,0,1,983.51,200.88Z"/><text class="cls-10" transform="translate(736.42 285.85)"><tspan class="cls-16">3</tspan><tspan x="107.1" y="0">.</tspan></text><text class="cls-6" transform="translate(838.98 348.21)">Let <tspan class="cls-17" x="54.81" y="0">u</tspan><tspan x="73.2" y="0">s </tspan><tspan class="cls-9" x="95.73" y="0">w</tspan><tspan class="cls-18" x="118.95" y="0">eigh </tspan><tspan class="cls-19" x="189.51" y="0">y</tspan><tspan x="206.25" y="0">our </tspan><tspan x="-74.19" y="36">filled ja</tspan><tspan class="cls-17" x="32.58" y="36">r</tspan><tspan x="44.97" y="36">s and </tspan><tspan class="cls-20" x="132.15" y="36">s</tspan><tspan x="147.18" y="36">ubst</tspan><tspan class="cls-21" x="212.67" y="36">r</tspan><tspan x="225" y="36">act the </tspan><tspan class="cls-9" x="-53.43" y="72">w</tspan><tspan x="-30.21" y="72">eight </tspan><tspan class="cls-22" x="52.77" y="72">o</tspan><tspan x="70.68" y="72">f the empty ja</tspan><tspan class="cls-17" x="274.89" y="72">r</tspan><tspan x="287.28" y="72">s. </tspan></text><path class="cls-23" d="M1429.83,532.58s0-25.55,16.71-30.47,27.53-24.58,26.54-27.52,25.56,15.72,25.56,15.72-11.79,26.55-25.56,27.53-24.57,25.56-24.57,25.56Z"/><polygon class="cls-3" points="1325.23 583.68 1378.37 583.68 1392.23 494.59 1310.85 490.56 1325.23 583.68"/><polygon class="cls-11" points="1303.6 478.26 1303.6 496.86 1395.93 498.93 1399.48 478.26 1303.6 478.26"/><path class="cls-24" d="M1310.85,515l6.92,40h67.49l7-40C1392.41,514,1310.85,515,1310.85,515Z"/><path class="cls-3" d="M1361.43,526.45a11.89,11.89,0,0,0,3.38,1.49,33.08,33.08,0,0,0,3.65.93,40.73,40.73,0,0,0,8,.75,1.06,1.06,0,0,0,.9-1.57,2.67,2.67,0,0,0-1.46-1c-.51-.21-1-.39-1.57-.56a27.1,27.1,0,0,0-3.53-.86,33.76,33.76,0,0,0-3.77-.47,8.53,8.53,0,0,1-3.06-.43l-.52,2a14.93,14.93,0,0,1,7,.83c1.07.4,2.11.87,3.21,1.2a18.39,18.39,0,0,1,3.1.91l.8-1.91a31.22,31.22,0,0,0-3.92-1.1c-1-.21-2.87-.83-3.65.14l1-.27a17.75,17.75,0,0,0-2-.57,1,1,0,0,0-.55,2l1,.3.55-2-1.89-.38c-.8-.15-1.75.73-1.17,1.53a3,3,0,0,0,2,1.18,1,1,0,0,0,.8-1.9,8.39,8.39,0,0,0-2.33-.92,1.05,1.05,0,0,0-1.17,1.53,4.53,4.53,0,0,0,2.5,1.81,1,1,0,0,0,1.28-.73,1.07,1.07,0,0,0-.72-1.28,35.47,35.47,0,0,0-5.12-1.64c-1-.23-1.83,1-1,1.74,1.81,1.61,4.36,2.15,6.7,2.44a44.39,44.39,0,0,0,8.47,0,1,1,0,0,0,.52-1.94c-1.87-1.43-4.6-1.66-6.85-2-2.8-.39-5.61-.73-8.42-1.09a1,1,0,0,0-1,1,1.07,1.07,0,0,0,1,1c2.62.34,5.25.65,7.87,1,1.18.16,2.38.33,3.54.6a7.26,7.26,0,0,1,2.81,1.16l.53-1.94a48.7,48.7,0,0,1-7.92.1,16.81,16.81,0,0,1-3.29-.65,6.66,6.66,0,0,1-2.48-1.24l-1,1.74a35.08,35.08,0,0,1,5.12,1.64l.56-2a2.42,2.42,0,0,1-1.27-.85l-1.17,1.53a6,6,0,0,1,1.83.71l.8-1.91a2.8,2.8,0,0,1-.5-.12s-.31-.24-.2-.1l-1.18,1.53,1.89.38a1,1,0,0,0,.55-2l-1-.3-.55,2a18.94,18.94,0,0,1,2,.57,1,1,0,0,0,1-.27s-.24.15-.26.12a2,2,0,0,0,.35,0,3.75,3.75,0,0,1,.57.09c.58.1,1.15.22,1.73.36a28.47,28.47,0,0,1,3.15.93,1,1,0,0,0,.81-1.9,18.5,18.5,0,0,0-3.34-1.05c-1.19-.33-2.31-.83-3.47-1.27a16.49,16.49,0,0,0-7.53-.91,1.1,1.1,0,0,0-1,.77,1,1,0,0,0,.48,1.17,8.44,8.44,0,0,0,3.14.65c1.14.08,2.29.15,3.43.33a29.41,29.41,0,0,1,3.33.7c.55.15,1.09.32,1.63.51l.74.27.32.13c.15,0,.2.22,0,0l.9-1.57a37.48,37.48,0,0,1-7.47-.67,31.11,31.11,0,0,1-3.39-.85,10.32,10.32,0,0,1-3.14-1.36,1,1,0,0,0-1.42.37,1.08,1.08,0,0,0,.37,1.43Z"/><path class="cls-3" d="M1324.6,528.72a11.7,11.7,0,0,0,3.67.49,31.6,31.6,0,0,0,3.77-.14,40.88,40.88,0,0,0,7.9-1.54,1,1,0,0,0,.46-1.74c-.82-.74-2.26-.63-3.3-.66a28.91,28.91,0,0,0-3.6.16,36,36,0,0,0-3.72.6,9.18,9.18,0,0,1-3.15.49v2a14.85,14.85,0,0,1,6.7-1.19c1.18.08,2.36.25,3.55.26a19.38,19.38,0,0,1,3.32,0l.28-2.05a33.18,33.18,0,0,0-4.23.06c-1.21.1-2.87.06-3.41,1.38l1-.77a18.92,18.92,0,0,0-2.13,0,1,1,0,0,0,0,2.08l1,0v-2.09l-1.92.18a1.05,1.05,0,0,0-.53,1.94,2.92,2.92,0,0,0,2,.44,1,1,0,0,0,.28-2,8.42,8.42,0,0,0-2.5-.23,1.06,1.06,0,0,0-.74,1.78,4.55,4.55,0,0,0,2.92,1.05,1.05,1.05,0,0,0,1-1,1.07,1.07,0,0,0-1-1,35.79,35.79,0,0,0-5.38-.14c-.94,0-1.52,1.47-.52,1.94,2.25,1.06,4.91.86,7.29.45a45.7,45.7,0,0,0,7.94-2.4,1.05,1.05,0,0,0,0-2c-2.25-.87-5-.28-7.31.06-2.74.4-5.48.87-8.21,1.31a1,1,0,0,0-.73,1.28,1.06,1.06,0,0,0,1.28.72c2.6-.41,5.2-.85,7.81-1.24,1.19-.18,2.38-.36,3.58-.43a7.23,7.23,0,0,1,3,.31v-2a48.73,48.73,0,0,1-7.37,2.29,17.32,17.32,0,0,1-3.44.36,6.93,6.93,0,0,1-2.82-.48l-.53,1.94a34.51,34.51,0,0,1,5.38.13v-2.08a2.56,2.56,0,0,1-1.45-.44l-.73,1.78a6.11,6.11,0,0,1,2,.15l.27-2a1.18,1.18,0,0,1-.94-.15l-.53,1.94,1.92-.17a1,1,0,0,0,0-2.09h-1v2.08c.71,0,1.42-.06,2.13,0a1,1,0,0,0,1-.76l0-.07-.26.45c-.08.09-.06,0,0,0l.15,0a4.63,4.63,0,0,1,.65-.1c.57-.06,1.15-.11,1.72-.14a28.29,28.29,0,0,1,3.32,0c1.15.06,1.44-1.85.27-2a21.41,21.41,0,0,0-3.67-.07c-1.26,0-2.5-.17-3.75-.25a16.1,16.1,0,0,0-7.25,1.26,1.09,1.09,0,0,0-.77,1,1,1,0,0,0,.77,1,8.71,8.71,0,0,0,3.25-.26c1.15-.26,2.3-.52,3.47-.67a27.85,27.85,0,0,1,3.28-.25c.56,0,1.11,0,1.66,0l.8,0a2.16,2.16,0,0,0,.35,0c.15,0,.27.15,0-.06l.46-1.74A37.69,37.69,0,0,1,1332,527a34,34,0,0,1-3.5.14,10.49,10.49,0,0,1-3.39-.42,1,1,0,0,0-.55,2Z"/><path class="cls-4" d="M1366.8,525.05a7.81,7.81,0,0,0,1.06,2.8.78.78,0,0,0,.88.36.82.82,0,0,0,.57-.75,2.3,2.3,0,0,0-.43-1.58.81.81,0,0,0-.88-.36.78.78,0,0,0-.57.75,4.31,4.31,0,0,0,.47,1.69,3.17,3.17,0,0,0,.48.71,1.21,1.21,0,0,0,.49.31,1.06,1.06,0,0,0,.76-.09.78.78,0,0,0,.39-.68,3.13,3.13,0,0,0-.61-1.74.8.8,0,0,0-.88-.35.77.77,0,0,0-.57.75,4.52,4.52,0,0,0,1.19,2.64.78.78,0,0,0,1.1,0,1.62,1.62,0,0,0,.19-1.74,8.56,8.56,0,0,0-.7-1.54.77.77,0,0,0-.78-.37.75.75,0,0,0-.65.56,2.16,2.16,0,0,0,.88,2.15.77.77,0,0,0,.79,0,.83.83,0,0,0,.39-.67,2.81,2.81,0,0,0-.76-2.2.79.79,0,0,0-1.33.56,3.12,3.12,0,0,0,1.32,2.47.79.79,0,0,0,1.18-.67,4.16,4.16,0,0,0-.72-2.47.81.81,0,0,0-.88-.36.83.83,0,0,0-.58.76,3.28,3.28,0,0,0,1.13,2.51.79.79,0,0,0,1.1,0,.78.78,0,0,0,0-1.1l-.19-.18s-.19-.23-.08-.08a3.91,3.91,0,0,1-.26-.44c0-.08,0-.07,0,0s0-.08,0-.12a2.17,2.17,0,0,1-.07-.24.59.59,0,0,1,0-.13c0,.1,0,.11,0,0s0-.17,0-.25l-1.45.39a4.48,4.48,0,0,1,.28.47s.08.22,0,.07l.09.26a2.46,2.46,0,0,1,.1.47c0-.19,0,.1,0,.13v.28l1.17-.68c.16.12-.05,0-.08-.07l-.17-.18c.12.12,0,0,0,0a1.59,1.59,0,0,1-.13-.22.37.37,0,0,1,0-.11c0,.09,0,.1,0,0l-.06-.18a1,1,0,0,1-.05-.24v-.1l-1.33.55c0,.05.12.14,0,0a.86.86,0,0,1,.1.16,1.29,1.29,0,0,1,.09.16c-.08-.16,0,0,0,.08a1.62,1.62,0,0,1,0,.19.29.29,0,0,1,0,.09c0-.09,0-.1,0,0s0,.28,0,.42l1.17-.68c.08.06.06,0,0,0s-.1-.12,0,0,0,0,0-.07-.08-.17,0-.07,0,0,0,0,0-.1,0-.14,0,.12,0,0,0-.23,0,0l-1.42.19c.1.16.19.34.28.51l.12.26c0,.06,0,.09,0,0l.06.17a4.72,4.72,0,0,1,.18.53s0,.14,0,0,0,0,0,0,0-.13,0-.05,0,0,0,0a.42.42,0,0,1,.08-.12h1.1l-.18-.2c.12.14,0-.08-.07-.11a4.17,4.17,0,0,1-.26-.46c0-.09,0-.08,0,0s0-.08,0-.13l-.09-.25-.06-.26s0-.09,0-.13,0,.1,0,0l-1.46.39a2,2,0,0,1,.18.26,1.09,1.09,0,0,1,.08.15c.07.13,0,0,0,0s.07.2.09.3l0,.14c0-.18,0,0,0,.06l.38-.67,0,0,.4-.1a.48.48,0,0,1,.29.1h0a1.63,1.63,0,0,1-.11-.17,2.25,2.25,0,0,1-.12-.21s-.12-.26,0-.1a2.57,2.57,0,0,1-.15-.47c0-.06,0-.13,0-.2h0s0-.09,0-.14l-1.46.4a1.7,1.7,0,0,1,.15.22c0,.07,0,.06,0,0l.06.16a.61.61,0,0,0,0,.13c0,.1,0-.11,0,0s0,.2,0,.3l1.46-.39c-.12-.2-.23-.4-.34-.6l-.13-.3c0,.11,0,0,0,0l-.06-.17a6.77,6.77,0,0,1-.35-1.32.78.78,0,0,0-1-.55.81.81,0,0,0-.55,1Z"/><path class="cls-4" d="M1332.46,524.46a8.5,8.5,0,0,0-.9,3.07.77.77,0,0,0,.48.72.81.81,0,0,0,.86-.17,2.46,2.46,0,0,0,.68-1.69.79.79,0,0,0-1.46-.39,4.15,4.15,0,0,0-.58,1.56c-.09.64-.11,1.58.71,1.75a.79.79,0,0,0,.88-.36,3.08,3.08,0,0,0,.51-1.77.78.78,0,0,0-1.45-.39,4.35,4.35,0,0,0-.59,2.64.79.79,0,0,0,1,.75c.63-.11.93-.74,1.11-1.29a8.24,8.24,0,0,0,.35-1.71.77.77,0,0,0-.48-.71.78.78,0,0,0-.85.16,2.13,2.13,0,0,0-.55,2.09.79.79,0,0,0,1.31.35,2.81,2.81,0,0,0,.79-2.18.82.82,0,0,0-.57-.76.84.84,0,0,0-.89.36,3.13,3.13,0,0,0-.41,2.61.79.79,0,0,0,1.31.34,4.27,4.27,0,0,0,1-2.58.79.79,0,0,0-.57-.75.83.83,0,0,0-.88.36,3.27,3.27,0,0,0-.54,2.71.78.78,0,0,0,1,.54.79.79,0,0,0,.54-1l0-.14h0c0-.08,0-.15,0-.22a2.11,2.11,0,0,1,0-.25c0-.06,0,0,0,0l0-.14.06-.21,0-.14c0,.08,0,.08,0,0a3,3,0,0,1,.26-.42l-1.45-.4a2.45,2.45,0,0,1,0,.27v0a.43.43,0,0,1,0,.11,4.27,4.27,0,0,1-.13.48c-.07.22.07-.12,0,.09s-.07.14-.11.2a1.28,1.28,0,0,1-.11.2s-.19.25-.1.15l1.3.34-.06-.24c0-.06,0-.05,0,0s0-.07,0-.1v-.26s0-.24,0-.08a3.25,3.25,0,0,1,.11-.42c0,.14,0-.05,0-.07a2.07,2.07,0,0,1,.15-.25l-1.45-.39a2.54,2.54,0,0,1,0,.39c0,.09,0-.1,0,0l-.06.2c0,.14,0,0,0,.05l-.09.16a1.74,1.74,0,0,1-.11.18c.08-.11,0,0-.07.05l1.31.35a.65.65,0,0,0,0-.13c0,.14,0,0,0,0V528c0-.1-.05.16,0,0a.65.65,0,0,0,0-.13c0,.07,0,.08,0,0s.11-.17,0-.09.07-.06.07-.07l-1.33-.55c0,.1,0,.11,0,0l0,.17c0,.08,0,.16,0,.24a6,6,0,0,1-.15.61l-.09.28-.06.15c0,.07,0,.08,0,0s0,0,0,0,0,.08,0,0,0,.06,0,0,.11,0,0,0l1,.76a3.33,3.33,0,0,1,0-.55s0-.1,0-.15,0-.11,0-.05,0,0,0,0l0-.16a3.45,3.45,0,0,1,.16-.52c.05-.15,0,0,0-.1l.15-.27-1.46-.4c0,.11,0,.21,0,.31,0-.09,0,0,0,0a1.8,1.8,0,0,1,0,.19s0,.09,0,.14,0-.09,0,0a2.75,2.75,0,0,1-.17.29l.88-.35c.31.44.43.55.37.32,0,.12,0,.14,0,.06a1.76,1.76,0,0,0,0-.23s0-.08,0-.12,0,.08,0,0,0-.15,0-.23a3.22,3.22,0,0,1,.14-.44c0,.12,0-.07.06-.1s.1-.18.15-.27l-1.45-.39a.76.76,0,0,1,0,.15c0-.09,0-.08,0,0l-.06.21c0-.13,0,.07,0,.08l-.09.13c0-.06,0-.06,0,0l1.33.55a.88.88,0,0,0,0-.16c0-.1,0-.11,0,0,0-.11,0-.22,0-.33s.1-.43.16-.64a5.49,5.49,0,0,1,.45-1.11.81.81,0,0,0-.28-1.07.8.8,0,0,0-1.07.28Z"/><path class="cls-3" d="M1351.62,543l-.46,0a4.16,4.16,0,0,1-4-3.08,1,1,0,0,1,2-.44,2,2,0,0,0,2.06,1.44,2.71,2.71,0,0,0,2.08-.51,1.57,1.57,0,0,0,.47-1,1,1,0,0,1,2.09,0,3.63,3.63,0,0,1-1.13,2.51A4.44,4.44,0,0,1,1351.62,543Z"/><circle class="cls-5" cx="1337.85" cy="536.88" r="3.94"/><circle class="cls-5" cx="1363.61" cy="536.68" r="3.94"/><path class="cls-25" d="M1280.27,481.12s-12.23,5.72-15.38,3.88-9.37-4.21-7.41-10.85,1.51-13.61,7.22-16.83,8.28-5.29,11.44-4,11.94-.23,14.79,5.87S1289.17,475.94,1280.27,481.12Z"/><path class="cls-26" d="M1279.14,573.74l6.15-3.78s12.14-26.3,10.2-34.12,1-17.15,1-17.15l7.26-15.62s18.26-20.37,19.31-20.48-5.44,3.32-5.44,3.32l-18.47,20-3.91,10.77-9.57-29.54,7.58-18.29s15.14-25.3,18.54-28.67-3.4,3.37-3.4,3.37L1289.63,468l-6.4,17.86-11.1-17.39s-5.16-2.94-6.08-3.35.31-18.77.31-18.77L1279,411.08l-5.43,3.34-11.1,34.15-.36,14.34s-5.64-2.49-9-4.37-11.69-13.18-11.69-13.18l-11.16-23.93-1.09,4,11.26,24.16L1251.05,462l9.57,3.27,9,5.59,11.25,16.91L1292,518.4l.66,13-11.48-6.62L1264,504.24l-.93,2.07,17.33,21,12.36,6.43S1290.39,564.12,1279.14,573.74Z"/><path class="cls-25" d="M1285.85,514.74c-.59.36-18.89,6.72-23.48-.73s-1.67-19.08,3.22-21.87,7-4.29,7-4.29,16.57-5.29,19.34,5.63S1285.85,514.74,1285.85,514.74Z"/><path class="cls-23" d="M1288.72,462c-.84-.75-13.16-7.06-7.79-17s18.91-11.64,18.91-11.64,9.57-1.27,12.82,1.52,7.94,14.77,2.26,21.11S1288.72,462,1288.72,462Z"/><path class="cls-25" d="M1267.92,440.7c2.06.36,23.79-11.17,23.59-19.59s-11.15-21.85-21.6-16.4-19.1,11.9-18.44,19.24S1256.73,438.73,1267.92,440.7Z"/><path class="cls-23" d="M1303.08,494.75s-14.68-11.51-6.84-19.47,21.33-10.68,24-8.53,13.33,4.31,11.3,15.61S1316.61,496.48,1303.08,494.75Z"/><path class="cls-23" d="M1247.38,437.86s13.71-15.72,8.2-24.66-23.76-4.34-23.76-4.34-9.56,10-8.41,15,3.72,13.52,10.16,16.51S1247.38,437.86,1247.38,437.86Z"/><path class="cls-5" d="M1273.21,562.75c-1.41-4.17-.53-8.78,1.31-12.8s4.58-7.58,7.08-11.26c1.12-1.63,2.19-3.3,3.3-4.94a7.46,7.46,0,0,1,3.15-3.07c1.4-.57,3.39,0,3.73,1.38a3.91,3.91,0,0,1-.85,2.78,51.44,51.44,0,0,0-5.39,12.11l8.74-10.82c1.58-2,3.48-4.08,6-4.22a4.23,4.23,0,0,1-.21,4,18.72,18.72,0,0,1-2.63,3.36,28.77,28.77,0,0,0-6.17,11.72c.4.49,1.15-.16,1.44-.72A20.6,20.6,0,0,1,1307.14,540a1.5,1.5,0,0,1,.84,0c.56.23.61,1,.47,1.56-.68,2.82-3.33,4.74-5.51,6.76a27.56,27.56,0,0,0-8.78,18.89"/><path class="cls-5" d="M1435.65,573.18c-3.6-9.27-12.7-14.94-20.61-20.95a4.9,4.9,0,0,1-2.2-2.77,1.94,1.94,0,0,1,.46-1.72,2.34,2.34,0,0,1,2.6-.2,30.46,30.46,0,0,1,11.56,7.15,3.81,3.81,0,0,0,.6-4.26,7.72,7.72,0,0,0-3.15-3.23c-6.43-4-15.8-3.76-19.83-10.16-.26-.42-.49-1-.17-1.39a1.32,1.32,0,0,1,1-.32,37.67,37.67,0,0,1,29.42,14.12c1.33-1.51.24-3.87-1-5.45a31.79,31.79,0,0,0-17.48-11c-1.65-.39-3.43-.68-4.54-2.12a2.47,2.47,0,0,1-.42-2.36c.49-1.28,1.81-1.49,3-1.51,5.73-.1,11.27,2.47,15.71,6.09s7.94,8.26,11.28,12.92c1.3-.79,1.18-2.73.62-4.15-2.84-7.26-11.6-10.38-16.2-16.57a1,1,0,0,1,1.09-1.6,22.49,22.49,0,0,1,14.4,11.43c1.87,3.67,3.11,8.3,6.93,9.86a56.23,56.23,0,0,1,0-6.62,1.2,1.2,0,0,1,2.11-.71,9.38,9.38,0,0,1,1.59,3.55,97.76,97.76,0,0,1,2.95,33.24"/><path class="cls-2" d="M1325.24,583.68s-12.53,46.06-19.12,52.55-21.48-3.7-22-14.13,9.86-55.64,9.86-55.64l-20.87-4.39s-14.8,46.31-9.86,68.82,40.38,36,40.38,36L1278.94,737s103,23.44,151-2.59l-26.61-69.44s52.73-23.6,52.15-91.29l-19.67-.58s-7.9,58.08-26.41,62.71-17.18.47-17.18.47l-13.86-52.55Z"/><path class="cls-3" d="M1476.68,512.55c-3,0-15.39-5.9-15.39-14.78,0-2.68.8-4.49,2.38-5.39,2.92-1.66,7.06.89,7.52,1.18l-1.52,2.51c-1-.64-3.46-1.75-4.6-1.11-.74.43-.89,1.77-.89,2.81,0,6.91,11,11.8,12.5,11.83a2.7,2.7,0,0,0,2.24-1.37c.48-1.18-.53-3.17-2.78-5.47l2-2.09c3.25,3.32,4.4,6.25,3.41,8.69A5.54,5.54,0,0,1,1476.68,512.55Z"/><polygon class="cls-3" points="1463.67 507.76 1461.79 505.52 1468.53 499.61 1470.41 501.85 1463.67 507.76"/><polygon class="cls-3" points="1466.6 512.24 1464.72 509.99 1471.46 504.08 1473.34 506.32 1466.6 512.24"/><text class="cls-10" transform="translate(1112.52 746.73)">4.</text><text class="cls-6" transform="translate(1279.28 805.78)">Thank <tspan class="cls-14" x="100.26" y="0">y</tspan><tspan x="117" y="0">ou </tspan><tspan class="cls-20" x="-57.51" y="36">f</tspan><tspan x="-46.71" y="36">or </tspan><tspan class="cls-14" x="-8.55" y="36">y</tspan><tspan x="8.19" y="36">our pu</tspan><tspan class="cls-21" x="102.9" y="36">r</tspan><tspan x="115.23" y="36">chase!</tspan></text><path class="cls-12" d="M10.92,485.9,0,484.59c.12-1,3-24.13,15.91-54C27.85,403,51,364.25,93.46,336.64l8.41-5.47.59,62.53-11,.1-.4-42.14C21.67,402.45,11,485,10.92,485.9Z"/><rect class="cls-12" x="42.96" y="331.25" width="59" height="11"/><path class="cls-12" d="M597.32,84.14l-4.59-10c.89-.41,22.15-10.06,54.39-14.66,29.77-4.25,74.87-4.73,120.6,17.06l9,4.31-53,33.17-5.84-9.32,35.73-22.36C674.09,49.71,598.11,83.78,597.32,84.14Z"/><rect class="cls-12" x="751.15" y="29.2" width="11" height="59" transform="translate(80.79 403.93) rotate(-31.49)"/><path class="cls-12" d="M1181.93,244.28l2-10.81c1,.18,23.89,4.55,52.88,19.39,26.77,13.7,63.9,39.31,88.69,83.49l4.9,8.74L1268,341.62l.62-11,42.08,2.33C1264.51,260.43,1182.78,244.44,1181.93,244.28Z"/><rect class="cls-12" x="1297.27" y="309.88" width="59" height="11" transform="translate(925.84 1618.86) rotate(-86.27)"/></g></g></svg>